<svg xmlns="http://www.w3.org/2000/svg" xmlns:xlink="http://www.w3.org/1999/xlink" id="Layer_1" data-name="Layer 1"
    viewBox="0 0 274.2 70.9">
    <defs>
        <style>
            .cls-1 {
                fill: none;
            }

            .cls-2 {
                fill: #79c7c5;
            }

            .cls-3 {
                clip-path: url(#clip-path);
            }

            .cls-4 {
                fill: #65c8d0;
            }
        </style>
        <clipPath id="clip-path">
            <rect class="cls-1" x="1" y="1" width="317" height="68" />
        </clipPath>
    </defs>
    <title>Монтажная область 1</title>
    <path class="cls-2"
        d="M58.33,49.65a1.32,1.32,0,0,1-.66.24,10.17,10.17,0,0,1-1.22,0,9,9,0,0,1-1.12,0,3.21,3.21,0,0,1-.62-.1,1.53,1.53,0,0,1-.35-.21,3.59,3.59,0,0,1-.21-.35L47.73,37.51,41.21,49.23a1.45,1.45,0,0,1-.24.35.91.91,0,0,1-.35.21,1.74,1.74,0,0,1-.63.1,8.31,8.31,0,0,1-1.08,0,9.17,9.17,0,0,1-1.15,0,1.09,1.09,0,0,1-.6-.24A.44.44,0,0,1,37,49.2a7,7,0,0,1,.35-.81l7.88-13.53L37.76,21.78a2.59,2.59,0,0,1-.35-.8.42.42,0,0,1,.1-.49,1.13,1.13,0,0,1,.63-.2,10.17,10.17,0,0,1,1.22,0,8.55,8.55,0,0,1,1.08,0,4.47,4.47,0,0,1,.66.1.7.7,0,0,1,.35.24,1.78,1.78,0,0,1,.28.32L47.9,32l6.18-11a2.22,2.22,0,0,1,.21-.32.94.94,0,0,1,.35-.24,3.31,3.31,0,0,1,.59-.1,7.11,7.11,0,0,1,1,0,5.17,5.17,0,0,1,1.12.07,1,1,0,0,1,.62.21.4.4,0,0,1,.14.45,1.53,1.53,0,0,1-.31.8l-7.5,13,7.81,13.63a2.32,2.32,0,0,1,.35.81.43.43,0,0,1-.14.45m-24-26.82a1.31,1.31,0,0,1-.14.49c-.1.14-.17.24-.27.28a.48.48,0,0,1-.28.1H23.07v10h10a1.23,1.23,0,0,1,.32.07,1,1,0,0,1,.24.28.89.89,0,0,1,.14.49,3.67,3.67,0,0,1,.07.77,3.93,3.93,0,0,1-.07.73,1.14,1.14,0,0,1-.14.52,1.74,1.74,0,0,1-.24.28.57.57,0,0,1-.32.1h-10V49.2a1.21,1.21,0,0,1-.06.31.82.82,0,0,1-.32.24,3.69,3.69,0,0,1-.59.14,6.43,6.43,0,0,1-.94,0,6.13,6.13,0,0,1-.91,0,3.69,3.69,0,0,1-.59-.14.82.82,0,0,1-.32-.24.57.57,0,0,1-.1-.31V22a1.38,1.38,0,0,1,1.43-1.57h13a.77.77,0,0,1,.28.07,1.22,1.22,0,0,1,.27.31,1.77,1.77,0,0,1,.14.53,4.41,4.41,0,0,1,0,.76,4.72,4.72,0,0,1,0,.77M38.31,2.39A32.45,32.45,0,1,0,70.78,34.86,32.48,32.48,0,0,0,38.31,2.39Z" />
    <g class="cls-3">
        <path id="f0_2" data-name="f0 2" class="cls-4"
            d="M83,50.71a6.55,6.55,0,0,1-.88-.06l-.59-.09a.79.79,0,0,1-.32-.23.68.68,0,0,1-.09-.3V23.72s0-.86.44-1.18a1.88,1.88,0,0,1,1-.35H95.26a.62.62,0,0,1,.29.09.77.77,0,0,1,.27.29,1.26,1.26,0,0,1,.14.5,4.45,4.45,0,0,1,.06.74,4.24,4.24,0,0,1-.06.7,1.39,1.39,0,0,1-.14.5.71.71,0,0,1-.27.27.67.67,0,0,1-.29.09H84.84v9.68H94.7a.59.59,0,0,1,.29.09.52.52,0,0,1,.24.23,1.32,1.32,0,0,1,.17.47s0,.3,0,.77c0,0,0,.41,0,.71a1.8,1.8,0,0,1-.17.5.75.75,0,0,1-.24.26.52.52,0,0,1-.29.12H84.84V50a.64.64,0,0,1-.09.3.71.71,0,0,1-.29.23l-.56.09A6.38,6.38,0,0,1,83,50.71Z" />
        <path id="f0_7" data-name="f0 7" class="cls-4"
            d="M109.16,47.94a7.36,7.36,0,0,0,2.74-.56,6,6,0,0,0,1.91-1.62,7.35,7.35,0,0,0,1.09-2.47,14.45,14.45,0,0,0,.35-3.12,18,18,0,0,0-.29-3.06,9.17,9.17,0,0,0-1-2.5,5.82,5.82,0,0,0-1.83-1.71,6.79,6.79,0,0,0-2.91-.62,7,7,0,0,0-2.74.59,5.87,5.87,0,0,0-1.91,1.59,8.23,8.23,0,0,0-1.09,2.5,14.18,14.18,0,0,0-.36,3.12,17,17,0,0,0,.3,3,8.5,8.5,0,0,0,1,2.51,6.07,6.07,0,0,0,1.85,1.7A6.59,6.59,0,0,0,109.16,47.94ZM109,51a14,14,0,0,1-4.24-.7,9.2,9.2,0,0,1-3-2.12A9.94,9.94,0,0,1,100,44.79a16.51,16.51,0,0,1-.62-4.47,17.24,17.24,0,0,1,.64-4.45,11.08,11.08,0,0,1,1.89-3.5A9.7,9.7,0,0,1,105,30.08a12,12,0,0,1,4.41-.83,13.28,13.28,0,0,1,4.24.74,8.92,8.92,0,0,1,3,2.12,10.31,10.31,0,0,1,1.83,3.35,17.22,17.22,0,0,1,.59,4.45,17.87,17.87,0,0,1-.62,4.47,11.61,11.61,0,0,1-1.91,3.5,10,10,0,0,1-3.15,2.3A12.81,12.81,0,0,1,109,51Z" />
        <path id="f0_8" data-name="f0 8" class="cls-4"
            d="M126.25,50.71a6.55,6.55,0,0,1-.88-.06,3.61,3.61,0,0,1-.56-.09.89.89,0,0,1-.3-.21.49.49,0,0,1-.09-.29V30.28a.53.53,0,0,1,.09-.29.53.53,0,0,1,.27-.21,1.09,1.09,0,0,1,.5-.15s.29,0,.79,0c0,0,.5,0,.83,0a1.24,1.24,0,0,1,.47.15.91.91,0,0,1,.26.21.49.49,0,0,1,.09.29v2.89a17.63,17.63,0,0,1,1.5-2,12.34,12.34,0,0,1,1.36-1.2,5.26,5.26,0,0,1,1.26-.59,5.18,5.18,0,0,1,1.27-.18,4.4,4.4,0,0,1,.65.06,6.6,6.6,0,0,1,.76.12l.71.17a1.65,1.65,0,0,1,.44.24s.15.12.17.21a.64.64,0,0,1,.09.26,2.5,2.5,0,0,1,0,.44v1.62a2.93,2.93,0,0,1-.09.5.78.78,0,0,1-.17.3.42.42,0,0,1-.27.08,1.72,1.72,0,0,1-.44-.08,3.09,3.09,0,0,0-.56-.21l-.7-.18a4.67,4.67,0,0,0-.86-.09,3.35,3.35,0,0,0-1.09.21,4.82,4.82,0,0,0-1.09.74A12.66,12.66,0,0,0,129.46,35s-.62.85-1.41,2.06v13a.53.53,0,0,1-.09.29.53.53,0,0,1-.27.21,3,3,0,0,1-.56.09A5.75,5.75,0,0,1,126.25,50.71Z" />
        <path id="f0_3" data-name="f0 3"
            d="M148.87,50.71a8.12,8.12,0,0,1-1-.06l-.68-.09a.86.86,0,0,1-.33-.23.5.5,0,0,1-.1-.3V25.37H137.9a.87.87,0,0,1-.36-.09.53.53,0,0,1-.26-.27,4.43,4.43,0,0,1-.13-.5,3.82,3.82,0,0,1-.06-.7,4.84,4.84,0,0,1,.06-.74s.07-.32.13-.5a.71.71,0,0,1,.26-.29.87.87,0,0,1,.36-.09h21.94a.87.87,0,0,1,.36.09.65.65,0,0,1,.26.29,1.08,1.08,0,0,1,.16.5,3.84,3.84,0,0,1,.07.74,3.65,3.65,0,0,1-.07.7,1.19,1.19,0,0,1-.16.5.59.59,0,0,1-.26.27.87.87,0,0,1-.36.09H151V50a.53.53,0,0,1-.1.3.77.77,0,0,1-.32.23l-.66.09A7.34,7.34,0,0,1,148.87,50.71Z" />
    </g>
    <g class="cls-3">
        <path
            d="M163.68,50.71a8.12,8.12,0,0,1-1-.06,4.37,4.37,0,0,1-.62-.09,1,1,0,0,1-.33-.21.46.46,0,0,1-.1-.29V30.28a.49.49,0,0,1,.1-.29.6.6,0,0,1,.29-.21,1.4,1.4,0,0,1,.56-.15s.32,0,.88,0c0,0,.55,0,.91,0a1.52,1.52,0,0,1,.53.15,1,1,0,0,1,.29.21.46.46,0,0,1,.1.29v2.89a17.28,17.28,0,0,1,1.66-2,13.67,13.67,0,0,1,1.5-1.2,6.29,6.29,0,0,1,1.41-.59,6.21,6.21,0,0,1,1.4-.18,5.3,5.3,0,0,1,.72.06,8.25,8.25,0,0,1,.85.12l.78.17a1.87,1.87,0,0,1,.49.24.81.81,0,0,1,.2.21.64.64,0,0,1,.09.26,1.89,1.89,0,0,1,0,.44v1.62a3.41,3.41,0,0,1-.1.5.92.92,0,0,1-.2.3.45.45,0,0,1-.29.08,2,2,0,0,1-.49-.08,3.88,3.88,0,0,0-.62-.21l-.78-.18a5.61,5.61,0,0,0-.95-.09,4.09,4.09,0,0,0-1.21.21,5.4,5.4,0,0,0-1.21.74A12.87,12.87,0,0,0,167.23,35s-.68.85-1.56,2.06v13a.49.49,0,0,1-.1.29.6.6,0,0,1-.29.21,3.91,3.91,0,0,1-.63.09A7,7,0,0,1,163.68,50.71Z" />
        <path id="f0_4" data-name="f0 4"
            d="M184.76,48.18a7,7,0,0,0,2.94-.74,13.35,13.35,0,0,0,2.84-2.21V41h-3.46a16.23,16.23,0,0,0-2.87.27,8.07,8.07,0,0,0-2,.74,4,4,0,0,0-1.18,1.2,3.73,3.73,0,0,0-.36,1.59,3.49,3.49,0,0,0,1.08,2.44A4.9,4.9,0,0,0,184.76,48.18ZM184.11,51a14.09,14.09,0,0,1-3.13-.38,8.08,8.08,0,0,1-2.38-1.18,6.18,6.18,0,0,1-1.54-1.88,6.41,6.41,0,0,1-.55-2.56,6.19,6.19,0,0,1,.78-2.89,6.56,6.56,0,0,1,2.15-2,12.37,12.37,0,0,1,3.46-1.23,25.71,25.71,0,0,1,4.61-.42h3V36.87a7.74,7.74,0,0,0-.29-2,4,4,0,0,0-.85-1.47,4,4,0,0,0-1.53-.88,8.84,8.84,0,0,0-2.35-.3,11.75,11.75,0,0,0-2.68.33,18.37,18.37,0,0,0-2.06.7s-.88.39-1.5.71a2.83,2.83,0,0,1-.88.32.74.74,0,0,1-.33-.08.76.76,0,0,1-.26-.27,1.81,1.81,0,0,1-.16-.47,5.73,5.73,0,0,1,0-.59,6.3,6.3,0,0,1,.06-.88,1.38,1.38,0,0,1,.43-.59,5.13,5.13,0,0,1,1.14-.68,13.85,13.85,0,0,1,1.83-.7,21.67,21.67,0,0,1,2.28-.5,15.08,15.08,0,0,1,2.51-.24,16.82,16.82,0,0,1,4,.5,7.7,7.7,0,0,1,2.68,1.41,6.16,6.16,0,0,1,1.5,2.33,11.52,11.52,0,0,1,.45,3.24V50.06a.56.56,0,0,1-.19.41,1.71,1.71,0,0,1-.52.18,6.89,6.89,0,0,1-1,.06,8.5,8.5,0,0,1-1-.06,1.65,1.65,0,0,1-.55-.18.52.52,0,0,1-.17-.38v-2a12.44,12.44,0,0,1-3.19,2.15A11.1,11.1,0,0,1,184.11,51Z" />
        <path id="f0_5" data-name="f0 5"
            d="M210.12,47.88a7,7,0,0,0,1.57-.2,6.13,6.13,0,0,0,1.5-.65,13,13,0,0,0,1.63-1.21A19,19,0,0,0,216.65,44V36.11a18.72,18.72,0,0,0-3.17-2.77,6.82,6.82,0,0,0-3.2-1,5.65,5.65,0,0,0-2.57.65,6.56,6.56,0,0,0-1.77,1.74,9.74,9.74,0,0,0-1,2.44,15.39,15.39,0,0,0-.29,2.76,19.08,19.08,0,0,0,.26,2.95,9.67,9.67,0,0,0,.88,2.53,5.34,5.34,0,0,0,1.7,1.77A5.19,5.19,0,0,0,210.12,47.88ZM209.44,51a11.45,11.45,0,0,1-4.15-.82,8.49,8.49,0,0,1-2.74-2.3A10.57,10.57,0,0,1,201,44.47a17.31,17.31,0,0,1,.13-8.68,11.71,11.71,0,0,1,1.8-3.51,8.9,8.9,0,0,1,3-2.23,10.85,10.85,0,0,1,4.08-.8,9.28,9.28,0,0,1,3.52.77,14,14,0,0,1,3.17,2.23V20.77a.46.46,0,0,1,.39-.5,5.29,5.29,0,0,1,.62-.14s.39,0,1,0c0,0,.59,0,1,0a4.52,4.52,0,0,1,.62.14,1,1,0,0,1,.33.21.67.67,0,0,1,.09.29V50.06a.74.74,0,0,1-.06.29.59.59,0,0,1-.29.21,3.82,3.82,0,0,1-.56.09,5.06,5.06,0,0,1-.82.06,5.86,5.86,0,0,1-.84-.06,4.4,4.4,0,0,1-.59-.09.62.62,0,0,1-.3-.21.49.49,0,0,1-.09-.29V47.41a16.86,16.86,0,0,1-3.59,2.65A10.6,10.6,0,0,1,209.44,51Z" />
        <path id="f0_6" data-name="f0 6"
            d="M242.77,38.23s.07-2.89-1.4-4.51A6.13,6.13,0,0,0,237,32.08a7.1,7.1,0,0,0-2.61.53,6.43,6.43,0,0,0-1.9,1.32,7.12,7.12,0,0,0-1.17,2,9.35,9.35,0,0,0-.46,2.33ZM237.58,51a18.78,18.78,0,0,1-4.73-.64,11.08,11.08,0,0,1-3.43-2,9.8,9.8,0,0,1-2.08-3.35,15.07,15.07,0,0,1,0-9.3,11,11,0,0,1,2.09-3.45A10.88,10.88,0,0,1,232.79,30a13.2,13.2,0,0,1,4.37-.77,13.57,13.57,0,0,1,4.41.77,9.58,9.58,0,0,1,3,2,9,9,0,0,1,1.73,3,14,14,0,0,1,.52,3.62v.68a1.73,1.73,0,0,1-.46,1.2,1.94,1.94,0,0,1-1.07.39h-14.4a13,13,0,0,0,.36,2.94,6.75,6.75,0,0,0,1.24,2.27,5.94,5.94,0,0,0,2.22,1.47,10.42,10.42,0,0,0,3.33.5,17,17,0,0,0,2.77-.24s1.21-.23,2.13-.5c0,0,.88-.29,1.43-.53a3.57,3.57,0,0,1,.88-.23.59.59,0,0,1,.3.09.47.47,0,0,1,.22.23,1.45,1.45,0,0,1,.1.41,5.13,5.13,0,0,1,0,.68,2.91,2.91,0,0,1,0,.47,1.22,1.22,0,0,1-.06.38,1.59,1.59,0,0,1-.1.3,1.43,1.43,0,0,1-.23.26,3.29,3.29,0,0,1-.78.39,10.35,10.35,0,0,1-1.73.53s-1.05.26-2.42.47A22.87,22.87,0,0,1,237.58,51Z" />
        <path
            d="M254.94,50.71a8.12,8.12,0,0,1-1-.06,4.58,4.58,0,0,1-.62-.09,1,1,0,0,1-.33-.21.49.49,0,0,1-.09-.29V30.28A.53.53,0,0,1,253,30a.6.6,0,0,1,.3-.21,1.31,1.31,0,0,1,.55-.15s.33,0,.88,0c0,0,.56,0,.92,0a1.49,1.49,0,0,1,.52.15.89.89,0,0,1,.29.21.46.46,0,0,1,.1.29v2.89a16.71,16.71,0,0,1,1.67-2,12.66,12.66,0,0,1,1.5-1.2,5.43,5.43,0,0,1,2.81-.77,5.21,5.21,0,0,1,.71.06,8.25,8.25,0,0,1,.85.12l.79.17a1.85,1.85,0,0,1,.48.24s.17.12.2.21a.55.55,0,0,1,.1.26,2.5,2.5,0,0,1,0,.44v1.62a2.4,2.4,0,0,1-.1.5.81.81,0,0,1-.19.3.5.5,0,0,1-.3.08,2.11,2.11,0,0,1-.49-.08A3.88,3.88,0,0,0,264,33l-.78-.18a5.61,5.61,0,0,0-1-.09,4,4,0,0,0-1.2.21,5.4,5.4,0,0,0-1.21.74A12.87,12.87,0,0,0,258.5,35s-.69.85-1.57,2.06v13a.49.49,0,0,1-.1.29.54.54,0,0,1-.29.21,3.89,3.89,0,0,1-.62.09A7.12,7.12,0,0,1,254.94,50.71Z" />
    </g>
</svg>